<svg xmlns="http://www.w3.org/2000/svg" xmlns:xlink="http://www.w3.org/1999/xlink" width="561.966" height="141.977" viewBox="0 0 561.966 141.977">
  <defs>
    <linearGradient id="linear-gradient" x1="0.5" x2="0.5" y2="1" gradientUnits="objectBoundingBox">
      <stop offset="0" stop-color="#eb0012"/>
      <stop offset="0.158" stop-color="#f669ac"/>
      <stop offset="0.345" stop-color="#ff0"/>
      <stop offset="0.562" stop-color="#8fcd10"/>
      <stop offset="0.739" stop-color="#21b4e0"/>
      <stop offset="0.916" stop-color="#172a88"/>
      <stop offset="1" stop-color="#036eb8"/>
    </linearGradient>
    <clipPath id="clip-path">
      <rect id="長方形_42" data-name="長方形 42" width="561.966" height="101.977"/>
    </clipPath>
  </defs>
  <g id="グループ_72924" data-name="グループ 72924" transform="translate(-220 -1128.98)">
    <rect id="長方形_32265" data-name="長方形 32265" width="20" height="561.966" transform="translate(781.966 1250.957) rotate(90)" fill="url(#linear-gradient)"/>
    <g id="グループ_63" data-name="グループ 63" transform="translate(220 1128.98)">
      <path id="パス_87" data-name="パス 87" d="M54.676,23.851,69.109,61.766H39.772ZM41.261,1.822,0,98.176H25.26l8-19.808H75.855l7.452,19.808h26.2L68.56,1.822Z" transform="translate(0 1.119)"/>
      <g id="グループ_62" data-name="グループ 62" transform="translate(0 0)">
        <g id="グループ_61" data-name="グループ 61" clip-path="url(#clip-path)">
          <path id="パス_88" data-name="パス 88" d="M129.576,98.176h-52.4V1.822h56.166q21.257.261,30.121,10.262A21.685,21.685,0,0,1,168.8,26.793q0,8.825-5.334,14.186a27.608,27.608,0,0,1-8.785,5.491q8.864,2.68,13.376,8.5a22.351,22.351,0,0,1,4.51,14.12,24.7,24.7,0,0,1-5.176,15.361,29.089,29.089,0,0,1-8.236,7.584,35.609,35.609,0,0,1-13.14,4.837,96.727,96.727,0,0,1-16.434,1.306m11.453-60.793q4.707-2.353,4.707-8.432,0-6.733-6.275-8.89a52.748,52.748,0,0,0-13.807-1.5H100.239V39.8h28.4q7.607,0,12.394-2.419m-12,18.369H100.239V81.441h28.4q7.607,0,11.845-1.7,7.687-3.138,7.686-12.028,0-7.515-7.45-10.327-4.159-1.571-11.689-1.635" transform="translate(47.39 1.119)"/>
          <path id="パス_89" data-name="パス 89" d="M199.608,101.977q-24.787,0-37.888-11.245-17.572-13.79-17.57-39.744,0-26.474,17.57-39.744Q174.82,0,199.608,0T237.5,11.243q17.492,13.272,17.493,39.744,0,25.954-17.493,39.744-13.1,11.246-37.888,11.245m22.827-25.886q8.391-8.827,8.393-25.1,0-16.211-8.432-25.068t-22.789-8.858q-14.355,0-22.9,8.826t-8.55,25.1q0,16.279,8.55,25.1t22.9,8.824q14.357,0,22.827-8.824" transform="translate(88.514 0)"/>
          <path id="パス_90" data-name="パス 90" d="M290.654,61.047V1.823h24.553V61.047q0,15.364-5.727,23.925-10.67,15.689-40.713,15.689t-40.79-15.689q-5.726-8.563-5.725-23.925V1.823H246.8V61.047q0,9.936,2.823,14.512,4.392,8.106,19.139,8.106,14.669,0,19.062-8.106,2.825-4.573,2.825-14.512" transform="translate(136.473 1.12)"/>
          <path id="パス_91" data-name="パス 91" d="M383.8,1.822V18.884H349.21V98.176H324.893V18.884H290.144V1.822Z" transform="translate(178.162 1.119)"/>
        </g>
      </g>
    </g>
  </g>
</svg>
